<svg width="13.671387" height="13.671387" viewBox="0 0 13.6714 13.6714" fill="none" xmlns="http://www.w3.org/2000/svg" xmlns:xlink="http://www.w3.org/1999/xlink">
	
	<defs/>
	<path id="Vector" d="M0.171387 13.5C0.28125 13.6096 0.430176 13.6714 0.585449 13.6714C0.740723 13.6714 0.889648 13.6096 0.999512 13.5L12.4995 2L12.4995 10.7422C12.4995 10.8977 12.5612 11.0466 12.6711 11.1565C12.781 11.2664 12.9301 11.3281 13.0854 11.3281C13.2408 11.3281 13.3899 11.2664 13.4998 11.1565C13.6097 11.0466 13.6714 10.8977 13.6714 10.7422L13.6714 0.585938C13.6714 0.43042 13.6097 0.281494 13.4998 0.171631C13.3899 0.0617676 13.2408 0 13.0854 0L2.9292 0C2.7738 0 2.62476 0.0617676 2.51489 0.171631C2.40497 0.281494 2.34326 0.43042 2.34326 0.585938C2.34326 0.741455 2.40497 0.890381 2.51489 1.00024C2.62476 1.11011 2.7738 1.17188 2.9292 1.17188L11.6714 1.17188L0.171387 12.6719C0.0616455 12.7817 0 12.9307 0 13.0859C0 13.2412 0.0616455 13.3901 0.171387 13.5Z" fill="currentColor" fill-opacity="1.000000" fill-rule="nonzero"/>
</svg>
