<svg width="25.000000" height="25.000000" viewBox="0 0 25 25" fill="none" xmlns="http://www.w3.org/2000/svg" xmlns:xlink="http://www.w3.org/1999/xlink">
	<defs>
		<clipPath id="clip67_1339">
			<rect id="fa6-solid:comment" width="25.000000" height="25.000000" fill="white" fill-opacity="0"/>
		</clipPath>
	</defs>
	<rect id="fa6-solid:comment" width="25.000000" height="25.000000" fill="#FFFFFF" fill-opacity="0"/>
	<g clip-path="url(#clip67_1339)">
		<path id="Vector" d="M25 11.7188C25 17.3291 19.4043 21.875 12.5 21.875C10.6884 21.875 8.9697 21.5625 7.41696 21.001C6.83591 21.4258 5.88864 22.0068 4.76559 22.4951C3.59372 23.0029 2.18259 23.4375 0.781219 23.4375C0.463837 23.4375 0.180634 23.2471 0.0585632 22.9541C-0.0635071 22.6611 0.00485229 22.3291 0.224579 22.1045L0.239227 22.0898C0.253876 22.0752 0.273407 22.0557 0.302704 22.0215C0.356415 21.9629 0.439423 21.8701 0.541962 21.7432C0.742157 21.499 1.01071 21.1377 1.28415 20.6885C1.77243 19.8779 2.2363 18.8135 2.32907 17.6172C0.864227 15.957 -3.05176e-05 13.9209 -3.05176e-05 11.7188C-3.05176e-05 6.1084 5.59567 1.5625 12.5 1.5625C19.4043 1.5625 25 6.1084 25 11.7188Z" fill="#DEDEDE" fill-opacity="1.000000" fill-rule="nonzero"/>
	</g>
</svg>
