<svg width="25.000000" height="15.865723" viewBox="0 0 25 15.8657" fill="none" xmlns="http://www.w3.org/2000/svg" xmlns:xlink="http://www.w3.org/1999/xlink">
	<defs/>
	<path id="Vector" d="M12.5 0C5.59641 0 0 3.55127 0 7.93311C0 12.3145 5.59641 15.8657 12.5 15.8657C19.4036 15.8657 25 12.3145 25 7.93311C25 3.55127 19.4036 0 12.5 0ZM3.23798 4.79297C3.58182 6.22607 6.08414 7.41602 9.47064 7.86914C9.47006 7.93652 9.46948 8.00391 9.46948 8.07178C9.46948 11.4707 10.4514 14.3223 11.7753 15.0977C6.28235 14.8354 1.94925 11.8179 1.94925 8.13281C1.94925 6.92285 2.4162 5.78467 3.23798 4.79297ZM10.7131 7.99805C11.2916 8.04199 11.8886 8.06494 12.5 8.06494C13.1114 8.06494 13.7084 8.04199 14.2869 7.99805C14.2048 10.519 13.4362 12.4951 12.5 12.4951C11.5638 12.4951 10.7952 10.519 10.7131 7.99805ZM15.5294 7.86865C18.9927 7.40576 21.5309 6.17139 21.7817 4.69531C22.6549 5.70996 23.153 6.8833 23.153 8.13281C23.153 11.8423 18.7616 14.8765 13.216 15.1021C14.544 14.3345 15.5305 11.4775 15.5305 8.07129C15.5305 8.00342 15.5305 7.93604 15.5294 7.86865ZM13.583 1.31299C17.0452 1.48828 19.6989 2.49219 19.6989 3.70459C19.6989 4.69482 17.9288 5.54541 15.3941 5.91943C15.1179 3.80127 14.4452 2.10107 13.583 1.31299ZM14.21 6.0542C13.6616 6.09912 13.0889 6.12256 12.4994 6.12256C11.91 6.12256 11.3372 6.09912 10.7888 6.0542C11.0188 4.05518 11.6979 2.60693 12.4994 2.60693C13.301 2.60693 13.9794 4.05566 14.21 6.0542ZM9.60529 5.91943C7.07062 5.54541 5.30051 4.69385 5.30051 3.70459C5.30051 3.29541 5.60275 2.91016 6.13614 2.57227C6.76202 2.25879 7.4422 1.98975 8.16632 1.77295C9.09906 1.53613 10.2086 1.37402 11.4164 1.31299C10.5542 2.10107 9.88153 3.80127 9.60529 5.91943Z" fill="currentColor" fill-opacity="1.000000" fill-rule="evenodd"/>
</svg>
