<svg width="25.000000" height="25.000000" viewBox="0 0 25 25" fill="none" xmlns="http://www.w3.org/2000/svg" xmlns:xlink="http://www.w3.org/1999/xlink">
	<defs>
		<clipPath id="clip67_1334">
			<rect id="carbon:view-filled" width="25.000000" height="25.000000" fill="white" fill-opacity="0"/>
		</clipPath>
	</defs>
	<rect id="carbon:view-filled" width="25.000000" height="25.000000" fill="#FFFFFF" fill-opacity="0"/>
	<g clip-path="url(#clip67_1334)">
		<path id="Vector" d="M15.625 12.5C15.625 14.2258 14.2259 15.625 12.5 15.625C10.7741 15.625 9.375 14.2258 9.375 12.5C9.375 10.7742 10.7741 9.375 12.5 9.375C14.2259 9.375 15.625 10.7742 15.625 12.5Z" fill="#DEDEDE" fill-opacity="1.000000" fill-rule="evenodd"/>
		<path id="Vector" d="M24.1718 12.2344C23.253 9.85754 21.6578 7.802 19.5834 6.3219C17.509 4.8418 15.0464 4.00195 12.5 3.90625C9.95349 4.00195 7.49091 4.8418 5.41653 6.3219C3.34216 7.802 1.74698 9.85754 0.828094 12.2344C0.766052 12.406 0.766052 12.594 0.828094 12.7656C1.74698 15.1425 3.34216 17.198 5.41653 18.6781C7.49091 20.1582 9.95349 20.998 12.5 21.0938C15.0464 20.998 17.509 20.1582 19.5834 18.6781C21.6578 17.198 23.253 15.1425 24.1718 12.7656C24.2339 12.594 24.2339 12.406 24.1718 12.2344ZM12.5 17.5781C11.4956 17.5781 10.5138 17.2803 9.67871 16.7223C8.84363 16.1643 8.19275 15.3712 7.80841 14.4434C7.42404 13.5154 7.32349 12.4944 7.51941 11.5093C7.71536 10.5243 8.19901 9.61938 8.90921 8.90918C9.61938 8.19897 10.5242 7.71533 11.5093 7.51941C12.4944 7.32349 13.5154 7.42407 14.4433 7.80847C15.3712 8.19275 16.1643 8.84363 16.7223 9.67871C17.2803 10.5138 17.5781 11.4956 17.5781 12.5C17.576 13.8462 17.0403 15.1366 16.0885 16.0885C15.1366 17.0404 13.8461 17.576 12.5 17.5781Z" fill="#DEDEDE" fill-opacity="1.000000" fill-rule="nonzero"/>
	</g>
</svg>
