<svg width="34.984253" height="34.946289" viewBox="0 0 34.9843 34.9463" fill="none" xmlns="http://www.w3.org/2000/svg" xmlns:xlink="http://www.w3.org/1999/xlink">
	<desc>
			Created with Pixso.
	</desc>
	<defs/>
	<path id="Vector" d="M32.3615 8.09668C27.1365 -0.00292969 16.4364 -2.40332 8.1615 2.62207C0.0864258 7.64648 -2.51355 18.5967 2.71143 26.6719L3.13647 27.3213L1.38647 33.8721L7.9364 32.1221L8.58643 32.5469C11.4115 34.0713 14.4865 34.9463 17.5365 34.9463C20.8114 34.9463 24.0864 34.0713 26.9115 32.3213C34.9865 27.0713 37.3865 16.3467 32.3615 8.04688L32.3615 8.09668ZM27.7865 24.9463C26.9115 26.2471 25.8114 27.1221 24.2865 27.3467C23.4115 27.3467 22.3114 27.7715 17.9614 26.0469C14.2615 24.2969 11.1864 21.4463 9.01147 18.1719C7.71143 16.6465 7.0365 14.6719 6.83643 12.6963C6.83643 10.9463 7.48645 9.42188 8.58643 8.32129C9.01147 7.89648 9.46143 7.67188 9.88647 7.67188L10.9865 7.67188C11.4115 7.67188 11.8615 7.67188 12.0864 8.54688C12.5115 9.64648 13.6115 12.2715 13.6115 12.4971C13.8364 12.7217 13.7365 14.3965 12.7365 15.3467C12.1864 15.9717 12.0864 15.9971 12.3114 16.4463C13.1864 17.7471 14.2865 19.0713 15.3615 20.1719C16.6615 21.2715 17.9865 22.1465 19.5115 22.7969C19.9364 23.0215 20.3865 23.0215 20.6115 22.5713C20.8364 22.1465 21.9115 21.0469 22.3615 20.5967C22.7865 20.1719 23.0115 20.1719 23.4614 20.3721L26.9614 22.1221C27.3865 22.3467 27.8364 22.5469 28.0614 22.7715C28.2865 23.4219 28.2865 24.2969 27.8364 24.9463L27.7865 24.9463Z" fill="#2A2A2A" fill-opacity="1.000000" fill-rule="nonzero"/>
</svg>
