<svg width="40.000000" height="40.000000" viewBox="0 0 40 40" fill="none" xmlns="http://www.w3.org/2000/svg" xmlns:xlink="http://www.w3.org/1999/xlink">
	<desc>
			Created with Pixso.
	</desc>
	<defs/>
	<path id="Vector" d="M40 20C40 25.3047 37.8928 30.3916 34.1421 34.1426C30.3914 37.8926 25.3043 40 20 40C14.6957 40 9.60864 37.8926 5.85791 34.1426C2.10718 30.3916 0 25.3047 0 20C0 14.6953 2.10718 9.6084 5.85791 5.85742C9.60864 2.10742 14.6957 0 20 0C25.3043 0 30.3914 2.10742 34.1421 5.85742C37.8928 9.6084 40 14.6953 40 20ZM20.7175 14.7646C18.7725 15.5752 14.8824 17.25 9.05249 19.79C8.10754 20.165 7.60999 20.5352 7.56494 20.8945C7.48999 21.5029 8.25244 21.7422 9.29004 22.0703L9.72754 22.207C10.7476 22.54 12.1226 22.9277 12.835 22.9424C13.485 22.957 14.2075 22.6924 15.005 22.1426C20.4525 18.4648 23.265 16.6074 23.4399 16.5674C23.5649 16.5371 23.74 16.5029 23.855 16.6074C23.9725 16.71 23.96 16.9072 23.9475 16.96C23.8726 17.2822 20.88 20.0625 19.3325 21.5029C18.85 21.9521 18.5074 22.2695 18.4375 22.3428C18.2833 22.5 18.1267 22.6553 17.9675 22.8076C17.0175 23.7227 16.3075 24.4072 18.005 25.5273C18.8225 26.0674 19.4775 26.5098 20.13 26.9551C20.84 27.4404 21.55 27.9229 22.47 28.5273C22.7025 28.6777 22.9275 28.8398 23.145 28.9951C23.9725 29.585 24.72 30.1152 25.6375 30.0303C26.1725 29.9805 26.725 29.4805 27.005 27.9805C27.6675 24.4375 28.97 16.7646 29.27 13.6025C29.2883 13.3398 29.2773 13.0752 29.2375 12.8154C29.214 12.6045 29.1122 12.4111 28.9525 12.2725C28.725 12.1152 28.4539 12.0342 28.1775 12.04C27.4275 12.0527 26.27 12.4551 20.7175 14.7646Z" fill="#2A2A2A" fill-opacity="1.000000" fill-rule="nonzero"/>
</svg>
